<svg xmlns="http://www.w3.org/2000/svg" width="128" height="128" viewBox="0 0 128 128">
  <rect width="128" height="128" rx="18" fill="#16201d"/>
  <path d="M64 16 98 34v36c0 24-14 38-34 48-20-10-34-24-34-48V34z" fill="#d1a857"/>
  <path d="M64 27 88 40v28c0 17-9 28-24 36-15-8-24-19-24-36V40z" fill="#20352f"/>
  <path d="M64 38c9 10 14 20 14 31 0 9-5 17-14 23-9-6-14-14-14-23 0-11 5-21 14-31z" fill="#76c6a2"/>
  <path d="M64 48c4 7 6 13 6 20 0 5-2 9-6 13-4-4-6-8-6-13 0-7 2-13 6-20z" fill="#f1e4c2"/>
</svg>

